<svg id="vita2023" data-name="vita2023" xmlns="http://www.w3.org/2000/svg" width="80.23" height="94.79" viewBox="0 0 240.69 284.36"><defs><style>.v231227{fill:#040000;}.t231227{fill:#040000;}</style></defs><title>vita</title><path class="t231227" d="M133.3,232.22,51.38,92.46H83.19S147.12,205,150.35,213.08h.49c2.71-7.09,68-120.62,68-120.62h30.89L166.59,232.22Z" transform="translate(-30.22 -8.18)"/><path class="v231227" d="M264.28,79.27C260,64.52,257.37,54.59,249.5,44.33,243,34.1,237.78,30.07,219.37,29.4c-1.7-.07-10-.13-10-.13l-42.16-.15-.86,213.13c-.14,34.77,3.63,38.61,38.1,44.1l0,6.18-108.32-.46,0-6.18c33.14-6.34,36.77-8.63,36.91-43.8L133.89,29l-49.51-.19c-20.13-.08-24.78,5.59-30.74,13.55-6.64,9-11.83,22-16.38,36.58l-7,0C32.72,56,34.94,29.61,36,8.18l5.34,0c6.42,8.3,11.71,8.62,24.74,8.67l173,.69c11.45.05,16.91-1.2,23.78-8.47l5.35,0c-.07,18.45.68,47,2.71,69.19Z" transform="translate(-30.22 -8.18)"/></svg>